#!OML:ASF E:\Steps\Project 1\Capture day 1\Session 2\Subject.ASF
:FULLY-SPECIFIED
:DEGREES
394
root 11.9334 17.9859 8.72404 -156.265 -3.2783 178.905
lowerback -27.793 -5.69495 -15.3752
upperback 0.307667 -2.87276 -3.19982
thorax 15.4513 -2.63228 3.45992
lowerneck 1.36273 -2.54115 -1.65854
upperneck 18.2245 -3.33919 10.4668
head 5.433 -0.418988 3.50058
rclavicle -5.56597e-015 5.24792e-014
rhumerus -43.3667 -22.4801 -71.4198
rradius 23.0725
rwrist 5.54248
rhand -3.67798 -52.5759
rfingers 7.12502
rthumb 22.0632 278.663
lclavicle -5.56597e-015 5.24792e-014
lhumerus -25.7949 -1.22313 78.5043
lradius 23.299
lwrist -1.21922
lhand -21.4078 -10.7091
lfingers 7.12502
lthumb 4.98064 19.2124
rfemur -29.9696 8.94757 20.0263
rtibia 19.2141
rfoot -22.0332 -8.93083
rtoes -23.0851
lfemur -29.3443 -13.3222 -19.3907
ltibia 17.4859
lfoot -10.516 -6.52211
ltoes -12.9337
395
root 11.9314 17.9858 8.71271 -156.197 -3.09083 178.85
lowerback -27.9264 -5.66248 -15.3696
upperback 0.297671 -2.8114 -3.14121
thorax 15.4948 -2.6076 3.53974
lowerneck 1.40767 -2.41975 -1.6789
upperneck 17.8646 -3.18463 10.4855
head 5.30319 -0.374108 3.50882
rclavicle 1.59028e-015 2.38542e-014
rhumerus -42.8223 -21.6724 -72.117
rradius 23.4635
rwrist 4.79815
rhand -3.74261 -53.1774
rfingers 7.12502
rthumb 22.0011 278.054
lclavicle 1.59028e-015 2.38542e-014
lhumerus -26.0026 -1.05179 78.4953
lradius 23.1883
lwrist -1.07347
lhand -21.2338 -10.8415
lfingers 7.12502
lthumb 5.14856 19.0759
rfemur -29.9796 8.96954 19.9363
rtibia 19.1232
rfoot -22.022 -8.86241
rtoes -23.4696
lfemur -29.3426 -13.1743 -19.5092
ltibia 17.4668
lfoot -10.4158 -6.59637
ltoes -12.2554
396
root 11.9291 17.9851 8.69921 -156.197 -2.84023 178.761
lowerback -27.9199 -5.54064 -15.3836
upperback 0.193013 -2.67091 -3.14064
thorax 15.3407 -2.54056 3.61012
lowerneck 1.67967 -2.38443 -1.68629
upperneck 17.5081 -3.12619 10.5277
head 5.14254 -0.370748 3.52039
rclavicle 2.78299e-014 -1.11319e-014
rhumerus -42.5538 -21.1601 -72.5622
rradius 23.6928
rwrist 4.28375
rhand -3.97268 -53.4044
rfingers 7.12502
rthumb 21.7802 277.801
lclavicle 2.78299e-014 -1.11319e-014
lhumerus -26.3932 -0.866825 78.4213
lradius 23.0252
lwrist -1.33635
lhand -21.2429 -11.194
lfingers 7.12502
lthumb 5.1398 18.7237
rfemur -29.8682 9.02296 19.8047
rtibia 18.9636
rfoot -22.0187 -8.7606
rtoes -23.4732
lfemur -29.2516 -12.964 -19.7243
ltibia 17.4857
lfoot -10.3217 -6.65517
ltoes -11.5466
397
root 11.9267 17.985 8.68575 -156.179 -2.60563 178.711
lowerback -27.739 -5.38406 -15.3312
upperback -0.0239061 -2.56218 -3.13183
thorax 14.9763 -2.47101 3.65774
lowerneck 2.0029 -2.36509 -1.50788
upperneck 17.16 -3.06633 10.3908
head 4.97264 -0.365447 3.444
rclavicle -1.27222e-014 -1.11319e-013
rhumerus -42.481 -20.9755 -72.6916
rradius 23.8597
rwrist 4.2696
rhand -4.15779 -53.0928
rfingers 7.12502
rthumb 21.6024 278.092
lclavicle -1.27222e-014 -1.11319e-013
lhumerus -26.9664 -0.920545 78.4214
lradius 22.8411
lwrist -1.55598
lhand -21.2312 -11.0945
lfingers 7.12502
lthumb 5.1511 18.8229
rfemur -29.7798 9.05218 19.7155
rtibia 18.8306
rfoot -21.9852 -8.60199
rtoes -23.4184
lfemur -29.1848 -12.8115 -19.8717
ltibia 17.493
lfoot -10.3247 -6.59616
ltoes -12.1794
398
root 11.9249 17.9856 8.67438 -156.101 -2.46938 178.647
lowerback -27.7043 -5.3375 -15.2956
upperback -0.13213 -2.54446 -3.06903
thorax 14.831 -2.45326 3.72287
lowerneck 1.87462 -2.3446 -1.62451
upperneck 17.0804 -3.06153 10.4721
head 4.97151 -0.372294 3.48724
rclavicle -2.06736e-014 3.02153e-014
rhumerus -42.1521 -20.9175 -72.7718
rradius 23.9562
rwrist 4.78236
rhand -3.83773 -52.7937
rfingers 7.12502
rthumb 21.9098 278.427
lclavicle -2.06736e-014 3.02153e-014
lhumerus -27.33 -0.847558 78.4719
lradius 22.6254
lwrist -1.69868
lhand -21.0808 -10.8813
lfingers 7.12502
lthumb 5.29634 19.0325
rfemur -29.7787 9.09373 19.5873
rtibia 18.7169
rfoot -21.9345 -8.50932
rtoes -23.5915
lfemur -29.1813 -12.7913 -19.9625
ltibia 17.4255
lfoot -10.3095 -6.55014
ltoes -12.7147
